HIERARCHY
ROOT Hips
{
	OFFSET	0.000000	0.000000	0.000000
	CHANNELS 6 Xposition Yposition Zposition Zrotation Xrotation Yrotation
	JOINT LeftUpLeg
	{
		OFFSET	12.830505	-7.049846	-1.643436
		CHANNELS 3 Zrotation Xrotation Yrotation
		JOINT LeftLeg
		{
			OFFSET	0.620834	-39.957500	-1.919341
			CHANNELS 3 Zrotation Xrotation Yrotation
			JOINT LeftFoot
			{
				OFFSET	-0.413890	-44.704761	-3.870325
				CHANNELS 3 Zrotation Xrotation Yrotation
				JOINT LeftFootHeel
				{
					OFFSET	0.164738	-8.918193	-6.555130
					CHANNELS 3 Zrotation Xrotation Yrotation
					End Site
					{
						OFFSET	-0.604053	0.000000	21.044330
					}
				}
			}
		}
	}
	JOINT RightUpLeg
	{
		OFFSET	-12.830505	-7.049846	-1.643436
		CHANNELS 3 Zrotation Xrotation Yrotation
		JOINT RightLeg
		{
			OFFSET	-0.620834	-39.957500	-1.919341
			CHANNELS 3 Zrotation Xrotation Yrotation
			JOINT RightFoot
			{
				OFFSET	0.413890	-44.704761	-3.870325
				CHANNELS 3 Zrotation Xrotation Yrotation
				JOINT RightFootHeel
				{
					OFFSET	-0.164738	-8.918193	-6.555130
					CHANNELS 3 Zrotation Xrotation Yrotation
					End Site
					{
						OFFSET	0.604053	0.000000	21.044330
					}
				}
			}
		}
	}
	JOINT Spine
	{
		OFFSET	0.000000	12.498170	1.820647
		CHANNELS 3 Zrotation Xrotation Yrotation
		JOINT Spine1
		{
			OFFSET	0.000000	7.620000	0.000000
			CHANNELS 3 Zrotation Xrotation Yrotation
			JOINT LeftShoulder
			{
				OFFSET	9.167800	29.136339	-5.551221
				CHANNELS 3 Zrotation Xrotation Yrotation
				JOINT LeftArm
				{
					OFFSET	12.133453	-3.880866	1.461963
					CHANNELS 3 Zrotation Xrotation Yrotation
					JOINT LeftForeArm
					{
						OFFSET	2.507115	-31.664908	-1.069404
						CHANNELS 3 Zrotation Xrotation Yrotation
						JOINT LeftHand
						{
							OFFSET	4.116172	-24.512624	5.009439
							CHANNELS 3 Zrotation Xrotation Yrotation
							End Site
							{
								OFFSET	-0.213136	-10.931856	2.182134
							}
						}
					}
				}
			}
			JOINT RightShoulder
			{
				OFFSET	-9.167800	29.136339	-5.551221
				CHANNELS 3 Zrotation Xrotation Yrotation
				JOINT RightArm
				{
					OFFSET	-12.133453	-3.880866	1.461963
					CHANNELS 3 Zrotation Xrotation Yrotation
					JOINT RightForeArm
					{
						OFFSET	-2.507115	-31.664908	-1.069404
						CHANNELS 3 Zrotation Xrotation Yrotation
						JOINT RightHand
						{
							OFFSET	-4.116172	-24.512624	5.009439
							CHANNELS 3 Zrotation Xrotation Yrotation
							End Site
							{
								OFFSET	0.213136	-10.931856	2.182134
							}
						}
					}
				}
			}
			JOINT Neck
			{
				OFFSET	0.000000	32.926272	-3.635654
				CHANNELS 3 Zrotation Xrotation Yrotation
				JOINT Head
				{
					OFFSET	0.000000	12.481178	4.646143
					CHANNELS 3 Zrotation Xrotation Yrotation
					End Site
					{
						OFFSET	0.000000	17.715204	-2.222063
					}
				}
			}
		}
	}
}
MOTION
Frames:     6
Frame Time: 0.016667
8.595014	100.969640	-23.502843	3.518831	-15.402811	4.419082	-10.955668	-1.885863	-4.222240	0.764314	7.036969	-2.523700	7.240999	10.716886	0.580331	0.	0.	0.	-9.383920	-22.912432	-0.622236	-15.804040	153.369507	21.502232	-5.219077	-19.688744	8.645585	0.	0.	0.	0.000000	-0.000001	0.000000	-5.362855	6.313993	-1.912256	4.465317	0.173056	3.881165	-23.722322	-57.452015	-61.365944	-98.113609	-16.001720	-80.611237	-26.923845	15.679309	-10.748272	-8.479956	0.356280	-0.603584	15.003613	-49.021233	59.122917	-78.575172	-132.074326	-52.289986	-73.605453	-2.130722	13.538326	-3.974684	2.529144	-1.361394	1.886083	2.233364	-1.365204	
8.552979	100.990685	-23.433322	3.515217	-15.387129	4.396650	-10.893281	-1.803332	-4.230525	0.708905	6.930166	-2.474734	7.266806	10.734744	0.545382	0.	0.	0.	-9.360374	-22.856796	-0.586188	-15.796991	153.330887	21.458443	-5.186033	-19.752676	8.703492	0.	0.	0.	-0.000001	0.000001	0.000000	-5.379663	6.234142	-1.885430	4.498863	0.248172	3.917481	-23.731602	-57.598175	-61.359447	-98.053200	-16.008749	-80.694298	-26.842049	15.710608	-10.722479	-8.469809	0.364491	-0.493021	15.009623	-49.129765	59.038879	-78.655594	-132.044540	-52.393669	-73.547577	-2.227504	13.499075	-3.961156	2.482340	-1.386456	1.924530	2.324406	-1.343613	
8.530613	100.999260	-23.411124	3.511962	-15.391644	4.367084	-10.865617	-1.764749	-4.211450	0.687700	6.890154	-2.507511	7.273428	10.743845	0.578970	0.	0.	0.	-9.308804	-22.841162	-0.540835	-15.799397	153.343430	21.448067	-5.170168	-19.789639	8.700609	0.	0.	0.	-0.000001	0.000001	0.000000	-5.407234	6.121691	-1.829348	4.528168	0.365868	3.929195	-23.769890	-57.780621	-61.431427	-98.051018	-16.063330	-80.750992	-26.832109	15.744574	-10.704046	-8.448865	0.443952	-0.426325	14.994627	-49.236187	58.976192	-78.660843	-132.011871	-52.389843	-73.496521	-2.269790	13.497622	-4.008729	2.495204	-1.397152	2.015553	2.401885	-1.362559	
8.528593	100.999502	-23.410896	3.511962	-15.391644	4.367084	-10.865617	-1.764749	-4.211450	0.687700	6.890154	-2.507511	7.282734	10.744771	0.572216	0.	0.	0.	-9.308804	-22.841162	-0.540835	-15.799397	153.343430	21.448067	-5.170168	-19.789639	8.700609	0.	0.	0.	-0.000001	0.000001	0.000000	-5.433292	6.011703	-1.798033	4.550858	0.474012	3.891957	-23.769890	-57.780621	-61.431427	-98.051018	-16.063330	-80.750992	-26.774426	15.958874	-10.784981	-8.426344	0.557696	-0.438326	14.994627	-49.236187	58.976192	-78.660843	-132.011871	-52.389843	-73.464325	-2.451591	13.524476	-3.985387	2.607677	-1.417944	2.015553	2.401885	-1.362559	
8.524185	100.997845	-23.421501	3.507254	-15.398186	4.324334	-10.862682	-1.770452	-4.193799	0.687751	6.897590	-2.550705	7.270191	10.750393	0.640767	0.	0.	0.	-9.226865	-22.790247	-0.468331	-15.828905	153.324203	21.464760	-5.129034	-19.851931	8.691521	0.	0.	0.	0.000000	-0.000002	0.000001	-5.440178	5.983632	-1.747868	4.568132	0.511612	3.952205	-23.830803	-58.026222	-61.617863	-98.078644	-16.209015	-80.862976	-26.845856	15.778772	-10.648450	-8.396136	0.543019	-0.347736	14.946194	-49.384922	58.970467	-78.612915	-131.903870	-52.288895	-73.425156	-2.303170	13.500882	-3.983310	2.574963	-1.435319	2.040755	2.421755	-1.376278	
8.502771	100.998572	-23.421412	3.503127	-15.403906	4.286909	-10.865890	-1.782404	-4.216853	0.718194	6.932168	-2.502861	7.239601	10.727550	0.652317	0.	0.	0.	-9.175930	-22.735098	-0.445716	-15.814419	153.294434	21.446507	-5.100847	-19.899668	8.679473	0.	0.	0.	0.000000	0.000001	0.000000	-5.450058	5.923583	-1.666806	4.578997	0.579290	3.978502	-23.841908	-58.180084	-61.705261	-98.138344	-16.265911	-80.960136	-26.852022	15.852975	-10.555366	-8.362283	0.599108	-0.355173	15.006918	-49.435486	59.033188	-78.718895	-131.842865	-52.285347	-73.408127	-2.347137	13.438154	-4.040130	2.569092	-1.489194	2.136480	2.366542	-1.401808	
